<svg xmlns="http://www.w3.org/2000/svg" viewBox="0 0 48 48"><rect x="6" y="8" width="36" height="32" rx="6" fill="#1769ff"/><path d="M13 16h9c4 0 6 2 6 5 0 2-1 3.4-3 4.2 2.6.7 4 2.5 4 5.1 0 3.7-2.7 5.7-7.3 5.7H13zm5 7h3.6c1.4 0 2.2-.6 2.2-1.8s-.8-1.7-2.2-1.7H18zm0 8.5h4c1.6 0 2.5-.7 2.5-2.1s-.9-2.1-2.6-2.1H18zM32 17h9v2.6h-9zm-1 10.8c0-4.7 3.1-7.8 7.6-7.8 4.8 0 7.2 3.4 7 8.7H35.8c.2 1.9 1.2 2.9 3 2.9 1.2 0 2-.4 2.5-1.3h4c-.9 3-3.4 4.8-6.6 4.8-4.6 0-7.7-2.9-7.7-7.3zm4.9-1.9h5.3c-.2-1.6-1.1-2.5-2.6-2.5s-2.4.9-2.7 2.5z" fill="#fff"/></svg>
