<svg xmlns="http://www.w3.org/2000/svg" viewBox="0 0 48 48"><path fill="#4285f4" d="M44 24.5c0-1.5-.1-2.6-.4-3.8H24v7.1h11.5c-.2 1.8-1.5 4.6-4.2 6.4l-.1.5 6.1 4.7.4.1C41.6 36 44 30.8 44 24.5z"/><path fill="#34a853" d="M24 45c5.7 0 10.5-1.9 14-5.1l-6.7-5.2c-1.8 1.2-4.2 2.1-7.3 2.1-5.6 0-10.3-3.7-12-8.8l-.5.1-6.3 4.9-.1.5C8.5 40.3 15.6 45 24 45z"/><path fill="#fbbc05" d="M12 28c-.4-1.2-.7-2.6-.7-4s.2-2.8.7-4l-.1-.5-6.4-5-.2.1C3.9 17.4 3 20.6 3 24s.9 6.6 2.3 9.4z"/><path fill="#ea4335" d="M24 11.2c4 0 6.6 1.7 8.1 3.1l5.9-5.8C34.4 5.2 29.7 3 24 3 15.6 3 8.5 7.7 5.3 14.6L12 20c1.7-5.1 6.4-8.8 12-8.8z"/></svg>
